<?xml version="1.0" standalone="no"?>
<!DOCTYPE svg PUBLIC "-//W3C//DTD SVG 20010904//EN"
 "http://www.w3.org/TR/2001/REC-SVG-20010904/DTD/svg10.dtd">
<svg version="1.0" xmlns="http://www.w3.org/2000/svg"
 width="1280.000000pt" height="1098.000000pt" viewBox="0 0 1280.000000 1098.000000"
 preserveAspectRatio="xMidYMid meet">
<metadata>
Created by potrace 1.15, written by Peter Selinger 2001-2017
</metadata>
<g transform="translate(0.000000,1098.000000) scale(0.100000,-0.100000)"
fill="white" stroke="none">
<path d="M7718 10959 c-21 -11 -38 -24 -38 -29 0 -6 42 -158 94 -338 l93 -327
163 -340 c89 -187 164 -345 167 -352 13 -31 -106 -64 -361 -99 -137 -18 -206
-32 -244 -50 -70 -31 -164 -126 -241 -243 -51 -77 -61 -100 -61 -136 0 -67 48
-130 198 -257 47 -40 92 -88 103 -110 11 -22 24 -77 30 -126 12 -105 38 -164
90 -202 l39 -28 -44 -26 c-137 -80 -168 -155 -127 -306 54 -197 182 -613 199
-646 40 -78 140 -229 163 -247 59 -43 146 -29 235 39 24 19 44 29 44 24 0 -6
-23 -69 -50 -140 -53 -138 -76 -253 -65 -322 9 -54 58 -106 168 -180 51 -34
96 -73 105 -90 31 -56 57 -79 109 -97 l52 -17 -69 -33 c-95 -45 -106 -58 -114
-128 -8 -76 0 -100 80 -240 91 -158 126 -238 164 -368 58 -198 131 -319 224
-367 54 -29 128 -27 226 5 l75 25 5 -121 c7 -156 24 -190 126 -252 102 -62
108 -76 115 -270 3 -89 11 -173 17 -189 36 -84 102 -133 232 -172 47 -15 117
-43 155 -64 109 -59 168 -73 304 -69 107 4 121 7 181 36 38 19 102 66 152 111
49 44 108 89 132 100 46 22 134 47 140 41 2 -2 94 -193 204 -424 109 -231 338
-710 507 -1065 169 -355 422 -883 561 -1175 l253 -530 -42 -19 -42 -19 110
-28 c132 -34 128 -34 115 -9 -12 23 -28 15 235 115 99 37 181 69 182 69 1 1 9
44 18 96 l16 95 -344 816 c-190 448 -349 825 -355 836 -6 11 -142 96 -303 188
-160 93 -297 178 -304 189 -15 23 -465 970 -465 978 0 16 123 43 190 43 64 -1
84 -5 135 -32 33 -17 91 -58 129 -90 164 -140 198 -153 402 -160 111 -4 152
-2 195 11 161 46 204 154 143 362 -46 159 -75 210 -249 424 -116 144 -119 151
-133 347 -13 185 -34 219 -188 296 -94 47 -190 80 -309 107 -109 25 -140 37
-169 69 -18 20 -18 21 15 47 19 15 57 52 86 81 79 81 88 118 88 349 l0 190
-35 69 c-46 91 -134 210 -196 263 -27 23 -78 57 -114 75 l-65 32 -232 0 c-128
0 -232 2 -230 5 52 101 84 157 150 260 122 189 154 280 122 355 -22 53 -39 71
-120 122 -65 42 -175 139 -175 154 0 4 13 10 30 14 62 14 115 108 140 251 27
153 1 461 -47 559 -36 73 -100 105 -240 125 -78 10 -418 1 -597 -16 l-68 -7
51 64 c56 69 138 221 166 308 26 79 17 178 -23 256 -44 85 -156 221 -216 260
-28 19 -99 52 -157 73 -151 56 -161 63 -207 136 -88 141 -132 138 -427 -24
-77 -42 -333 -146 -340 -138 -2 2 -80 165 -173 363 l-171 360 -217 273 c-119
149 -217 272 -218 272 -1 -1 -18 -10 -38 -21z"/>
<path d="M438 10459 c-21 -11 -38 -26 -38 -33 0 -8 42 -162 94 -343 l94 -328
165 -345 c147 -307 164 -346 149 -357 -29 -23 -124 -14 -288 28 -254 64 -314
63 -381 -9 -33 -36 -92 -154 -138 -277 -20 -55 -51 -133 -68 -174 -29 -71 -30
-78 -19 -139 29 -170 253 -509 415 -629 l48 -35 -41 -22 c-67 -36 -111 -76
-131 -120 -34 -75 -30 -97 75 -451 108 -362 112 -373 186 -491 93 -147 106
-159 179 -159 l58 0 12 -150 c6 -82 11 -169 11 -192 0 -33 7 -50 31 -78 36
-41 99 -62 278 -95 134 -25 165 -39 187 -83 9 -17 32 -49 52 -69 20 -21 34
-39 31 -41 -2 -2 -38 -16 -79 -32 -100 -38 -201 -89 -222 -111 -9 -11 -19 -47
-23 -87 -7 -60 -5 -72 18 -120 37 -73 79 -121 150 -169 121 -80 129 -101 75
-184 -27 -40 -33 -58 -32 -100 3 -101 123 -297 227 -368 73 -51 127 -56 232
-22 44 14 85 26 91 26 8 0 13 -38 15 -123 4 -115 6 -126 31 -165 18 -27 51
-55 96 -81 98 -57 106 -76 108 -262 3 -174 19 -225 91 -289 39 -34 133 -80
164 -80 5 0 23 -7 39 -15 22 -12 43 -44 89 -138 45 -92 72 -135 105 -165 100
-92 241 -79 351 33 25 26 79 99 121 163 103 157 135 194 191 224 64 34 153 62
163 52 5 -5 361 -747 791 -1649 430 -902 784 -1642 786 -1644 2 -3 13 5 26 16
12 11 126 60 253 108 l231 88 16 95 16 96 -334 790 c-183 435 -342 810 -352
834 -18 42 -28 49 -316 216 l-298 173 -235 492 c-129 271 -234 496 -234 500 0
16 126 46 192 45 87 0 163 -38 287 -144 50 -43 108 -84 128 -91 58 -19 175 -5
344 41 179 49 223 69 249 113 29 48 25 101 -19 219 -51 137 -85 190 -267 413
-82 101 -93 131 -100 277 -3 67 -12 144 -20 170 -19 60 -79 115 -182 167 -43
22 -103 60 -133 86 -76 66 -122 90 -216 115 -46 12 -83 23 -83 25 0 2 27 30
59 63 87 89 96 122 96 357 0 190 0 190 -29 245 -86 166 -207 298 -323 353
l-68 32 -238 0 c-130 0 -237 2 -237 4 0 2 32 33 70 70 62 60 70 71 70 105 0
49 -18 81 -79 141 -67 65 -67 84 4 220 86 164 85 203 -14 300 -56 54 -61 65
-31 65 30 0 85 55 108 107 41 96 55 204 49 378 -4 134 -10 179 -36 278 -36
141 -67 198 -127 237 -86 54 -179 58 -382 15 -40 -8 -92 -15 -115 -15 -57 -1
-117 -15 -209 -50 -43 -17 -80 -30 -82 -30 -3 0 6 24 19 53 15 32 28 89 35
147 6 52 23 145 37 205 35 146 36 270 4 337 -26 54 -110 137 -169 167 -23 12
-86 37 -139 57 -54 19 -108 42 -121 50 -12 8 -43 46 -67 84 -24 38 -53 74 -64
79 -11 6 -42 11 -70 11 -58 0 -127 -28 -234 -94 -88 -54 -380 -176 -393 -164
-2 3 -80 166 -174 363 l-171 358 -202 254 c-111 140 -209 263 -217 273 -15 18
-16 18 -52 -1z"/>
<path d="M4518 9889 c-21 -11 -38 -24 -38 -29 0 -6 42 -158 94 -338 l93 -327
162 -340 c156 -326 162 -341 148 -365 -37 -62 -108 -84 -312 -95 -171 -10
-245 -23 -280 -49 -42 -32 -85 -117 -130 -256 -20 -63 -44 -127 -51 -142 -34
-65 -5 -135 96 -233 88 -86 108 -123 121 -228 13 -112 25 -143 70 -188 l38
-38 -53 -30 c-65 -36 -96 -73 -96 -114 0 -16 14 -86 30 -155 24 -98 29 -132
21 -154 -6 -16 -8 -35 -5 -43 3 -8 7 -108 7 -223 l2 -208 27 -41 c15 -23 71
-75 125 -117 54 -41 108 -91 121 -111 25 -39 73 -65 119 -65 35 0 118 39 161
74 17 15 32 23 32 16 0 -6 -20 -62 -43 -123 -48 -122 -62 -173 -72 -258 -14
-111 22 -164 179 -269 45 -30 85 -65 95 -83 28 -53 66 -85 116 -98 l48 -12
-74 -37 c-102 -52 -110 -62 -112 -152 l-2 -74 71 -124 c104 -180 130 -236 162
-346 69 -231 123 -329 215 -391 69 -46 114 -50 216 -18 47 15 91 29 98 32 10
4 13 -17 13 -98 0 -57 5 -121 11 -142 14 -52 66 -107 132 -141 77 -38 128 -85
162 -147 27 -50 29 -65 36 -194 4 -89 12 -153 21 -176 22 -50 79 -93 151 -113
34 -10 94 -35 132 -56 108 -59 167 -73 304 -69 107 4 122 7 181 36 38 19 101
64 149 109 85 77 171 127 241 139 l35 6 404 -848 c223 -466 570 -1195 773
-1620 202 -424 368 -784 368 -798 0 -22 3 -26 18 -20 9 4 130 50 267 102 138
53 251 97 253 98 2 2 10 45 18 97 l15 94 -327 774 c-180 426 -336 798 -347
825 -11 28 -25 55 -29 62 -5 6 -136 85 -291 174 -155 89 -289 169 -299 178
-13 13 -478 979 -478 994 0 14 124 42 190 42 68 0 82 -4 145 -38 39 -21 104
-67 145 -103 41 -37 89 -73 107 -80 58 -25 116 -3 251 94 46 34 113 72 150 86
73 28 112 59 139 109 26 48 22 162 -10 264 -40 129 -54 147 -120 158 -31 6
-47 18 -87 68 -76 94 -83 114 -92 272 -14 212 -34 246 -197 331 -52 27 -99 63
-156 120 -113 113 -154 134 -310 159 l-39 7 24 19 c14 11 46 31 72 44 74 39
79 56 81 273 l1 187 -50 122 c-28 67 -63 142 -78 167 -32 54 -109 119 -186
155 -54 26 -58 26 -287 26 -128 0 -233 1 -233 1 0 1 12 23 27 50 37 70 67 99
160 160 211 137 214 282 10 474 -49 47 -120 114 -156 149 l-66 64 33 10 c66
20 118 113 143 252 7 43 10 130 6 239 -4 145 -9 184 -30 255 -40 133 -88 167
-268 191 -72 10 -401 1 -594 -17 l-69 -6 39 45 c48 54 108 155 155 258 32 69
35 83 35 170 0 85 -3 101 -29 150 -16 30 -57 92 -92 137 -51 65 -64 89 -64
117 0 41 -15 58 -84 93 -28 14 -94 56 -147 94 -147 105 -194 124 -309 124 -89
0 -100 -2 -174 -37 -43 -21 -88 -38 -100 -38 -11 0 -59 19 -105 42 -112 56
-183 62 -267 24 -32 -15 -66 -34 -76 -43 -10 -9 -20 -14 -22 -12 -2 2 -60 123
-129 269 l-126 265 -213 268 c-116 148 -215 270 -218 272 -3 2 -22 -6 -42 -16z"/>
</g>
</svg>
