<?xml version="1.0" standalone="no"?>
<!DOCTYPE svg PUBLIC "-//W3C//DTD SVG 20010904//EN"
 "http://www.w3.org/TR/2001/REC-SVG-20010904/DTD/svg10.dtd">
<svg version="1.0" xmlns="http://www.w3.org/2000/svg"
 width="1280.000000pt" height="792.000000pt" viewBox="0 0 1280.000000 792.000000"
 preserveAspectRatio="xMidYMid meet">
<metadata>
Created by potrace 1.15, written by Peter Selinger 2001-2017
</metadata>
<g transform="translate(0.000000,792.000000) scale(0.100000,-0.100000)"
fill="white" stroke="none">
<path d="M1632 7908 c-21 -21 -13 -62 43 -212 30 -80 55 -148 55 -151 0 -2
-17 -7 -37 -10 -113 -19 -289 -110 -380 -196 -44 -41 -58 -49 -91 -49 -58 0
-96 31 -208 175 -113 144 -143 166 -175 126 -10 -13 -19 -34 -19 -48 0 -32 92
-247 135 -315 107 -169 145 -236 145 -253 0 -11 -28 -51 -63 -88 -46 -51 -81
-77 -137 -105 -88 -44 -100 -62 -130 -200 -22 -107 -43 -151 -102 -218 -25
-27 -73 -89 -107 -138 -35 -50 -80 -111 -100 -136 -20 -26 -63 -97 -95 -158
-52 -99 -74 -129 -201 -265 -78 -84 -147 -163 -154 -174 -17 -33 -13 -81 14
-189 38 -150 125 -264 254 -333 76 -40 137 -41 224 -5 89 37 177 41 308 15 92
-19 119 -21 195 -12 117 13 261 44 353 77 94 33 109 30 281 -51 193 -90 320
-124 570 -151 275 -29 359 -108 588 -550 60 -115 123 -234 140 -265 30 -52 87
-180 231 -519 89 -208 96 -220 171 -302 109 -118 238 -200 400 -253 47 -15 87
-29 88 -31 2 -1 -16 -20 -39 -41 -217 -193 -280 -251 -388 -357 -130 -127
-235 -268 -293 -393 -28 -58 -30 -71 -26 -142 4 -64 11 -93 41 -156 69 -145
122 -210 341 -425 127 -125 255 -262 326 -350 297 -366 608 -649 762 -694 9
-3 33 -37 54 -77 54 -103 154 -202 225 -224 67 -20 181 -31 201 -19 12 8 -2
63 -84 344 -54 184 -104 340 -112 348 -8 8 -58 25 -112 38 -54 13 -104 30
-111 37 -11 10 -8 27 13 90 40 120 21 155 -114 203 -90 32 -103 40 -197 112
-84 64 -144 120 -189 176 -51 62 -202 343 -221 410 -41 142 14 275 149 361 55
34 237 121 461 220 93 40 189 93 285 156 154 101 216 160 272 257 l32 56 100
-204 c81 -163 125 -239 220 -375 222 -314 497 -773 646 -1076 106 -217 148
-344 175 -532 11 -76 -8 -126 -84 -213 -36 -42 -79 -93 -94 -113 -16 -20 -49
-46 -77 -58 -96 -42 -176 -143 -195 -245 l-7 -38 349 0 350 0 21 23 c68 72 89
231 44 331 -32 71 -30 76 28 76 64 0 103 20 120 61 19 44 -7 164 -114 544 -96
337 -207 769 -237 920 -39 194 -91 385 -191 695 -17 52 -55 146 -84 209 -30
63 -53 116 -51 117 2 2 221 5 487 6 l485 3 165 -32 c329 -64 625 -87 912 -72
256 14 347 27 868 129 l115 23 80 -58 c44 -31 113 -75 153 -97 39 -22 72 -45
72 -52 0 -6 -11 -76 -25 -154 -31 -174 -31 -181 -2 -223 42 -63 139 -70 191
-14 11 12 43 83 70 156 27 74 52 137 56 142 6 7 136 -16 147 -26 3 -4 -2 -57
-11 -119 -26 -182 -21 -231 28 -270 27 -22 125 -24 166 -3 17 9 33 28 39 47 8
28 61 288 61 303 0 3 31 5 69 5 l70 0 7 -47 c11 -73 -3 -379 -21 -463 -9 -41
-28 -102 -42 -135 -41 -99 -155 -321 -240 -470 -44 -77 -93 -165 -108 -195
-77 -153 -168 -252 -447 -486 -117 -98 -243 -208 -280 -245 -73 -73 -154 -189
-182 -262 -16 -42 -25 -50 -89 -84 -91 -47 -184 -138 -226 -221 l-31 -62 357
2 358 3 101 189 c56 104 109 193 117 197 10 6 28 -2 58 -26 24 -19 52 -35 63
-35 21 0 111 89 178 176 24 32 95 144 157 248 220 370 219 369 584 641 162
121 302 232 311 246 8 14 49 170 90 345 45 195 86 349 105 394 41 96 94 190
119 214 20 17 21 17 35 -6 79 -131 105 -169 154 -231 32 -40 114 -130 183
-202 136 -141 185 -206 247 -330 91 -181 145 -360 197 -650 42 -237 48 -307
36 -419 -8 -82 -13 -95 -54 -155 -55 -80 -66 -109 -66 -169 0 -46 -2 -50 -90
-137 -97 -96 -121 -139 -135 -243 l-7 -52 348 2 349 3 39 68 c55 95 57 134 13
233 -19 43 -38 98 -42 121 -6 37 -3 45 18 67 15 15 46 28 81 36 47 10 59 16
72 42 17 32 16 37 -10 168 -35 169 -108 596 -131 760 -13 96 -31 223 -40 282
-16 105 -16 108 9 255 49 287 78 534 74 634 -3 93 -5 100 -55 200 -61 123
-116 271 -144 389 -16 67 -22 133 -26 311 -5 196 -3 243 15 360 28 178 39 297
52 519 6 102 17 244 26 315 38 331 41 371 27 483 -29 255 0 132 57 -238 56
-364 70 -490 70 -670 0 -85 8 -274 17 -420 18 -289 19 -679 2 -817 -20 -170
-23 -409 -6 -492 36 -171 59 -322 64 -416 6 -116 18 -135 88 -155 58 -16 111
-5 147 30 l28 28 0 160 c0 89 -7 215 -16 284 -15 118 -15 211 2 408 5 61 3 69
-29 122 -19 32 -49 101 -67 155 l-32 98 5 230 c3 127 12 275 21 331 20 133 27
1644 9 1850 -43 475 -205 764 -593 1058 -153 115 -331 197 -594 272 -172 49
-257 58 -561 58 -248 0 -282 -2 -425 -26 -242 -42 -527 -73 -885 -97 -88 -6
-263 -18 -390 -27 -226 -15 -804 -65 -960 -84 -44 -5 -170 -16 -280 -25 -195
-16 -204 -16 -380 5 -121 14 -290 24 -518 30 -435 12 -575 23 -1057 85 -362
47 -547 63 -875 76 -313 13 -496 8 -790 -22 -655 -65 -1079 -65 -1370 0 -254
57 -578 177 -672 249 l-23 17 25 53 c56 121 48 127 -337 262 -59 20 -115 44
-124 51 -10 8 -53 59 -98 114 -117 144 -126 151 -154 123z"/>
</g>
</svg>
